# xmcd
#
# Track frame offsets: 
#        150
#        21876
#        42146
#        61346
#        80246
#        100257
#        127706
#        146643
#        168168
#        188643
#        206605
#        224342
#
# Disc length: 3246 seconds
#
# Revision: 0
# Processed by: cddbd v1.5.2PL0 Copyright (c) Steve Scherf et al.
# Submitted via: ExactAudioCopyFreeDBPlugin 1.0
#
DISCID=a30cac0c
DTITLE=รวมศิลปิน - ซูซู คารบาว 2 ผู้ยิ่งใหญ่ แผ่น 2
DYEAR=1900
DGENRE=ไทยเพื่อชีวิต
TTITLE0=คารบาว - ลุงขี้เมา (ซานตาน่า)
TTITLE1=คารบาว - สัญญาหน้าฝน (ซานตาน่า)
TTITLE2=คารบาว - ข้องจิต
TTITLE3=คารบาว - ฝากจันทร์
TTITLE4=คารบาว - ดอกไม้ริมทาง
TTITLE5=คารบาว - น้ำพริกแกงป่า
TTITLE6=คารบาว - เซียมหล่อตือ
TTITLE7=คารบาว - เขี้ยวเสือไฟ
TTITLE8=คารบาว - จำปาเมืองลาว
TTITLE9=คารบาว - ฮักสาวโพนโฮง
TTITLE10=คารบาว - หนาวหมอก
TTITLE11=คารบาว - ส่วย
EXTD=
EXTT0=
EXTT1=
EXTT2=
EXTT3=
EXTT4=
EXTT5=
EXTT6=
EXTT7=
EXTT8=
EXTT9=
EXTT10=
EXTT11=
PLAYORDER=
